<?xml version="1.0" encoding="utf-8"?>
<!-- Generator: Adobe Illustrator 24.0.1, SVG Export Plug-In . SVG Version: 6.00 Build 0)  -->
<svg version="1.1" id="Capa_1" xmlns="http://www.w3.org/2000/svg" xmlns:xlink="http://www.w3.org/1999/xlink" x="0px" y="0px"
	 viewBox="0 0 24 24" style="enable-background:new 0 0 24 24;" xml:space="preserve">
<style type="text/css">
	.st0{fill:#0A2DFF;}
</style>
<title>CodersRank icon</title>
<path class="st0" d="M23.1,8.6l-6-3.6c-0.1-0.1-0.3,0-0.4,0.1c0,0,0,0,0,0l-1.4,3.3l2.8,1.7c0.3,0.1,0.3,0.5,0.2,0.7
	c0,0.1-0.1,0.2-0.2,0.2l-5.3,3.1l-2.3,5.3c0,0.1,0,0.1,0,0.2c0,0,0,0,0,0c0,0,0.1,0,0.1,0l3.9-2.4l1.5,2.2c0.1,0.1,0.2,0.2,0.3,0.2
	h3.7c0.1,0,0.3-0.1,0.3-0.2c0.1-0.1,0.1-0.3,0-0.4L18,15.2l5.1-3.1c0.6-0.3,0.9-0.7,0.9-1.2V9.8C24,9.4,23.7,9,23.1,8.6L23.1,8.6z
	 M13.1,4.3L0.8,12.1C0.3,12.4,0,12.8,0,13.2v1.2c0,0.4,0.3,0.8,0.9,1.1L6.9,19c0.1,0.1,0.3,0,0.4-0.1c0,0,0,0,0,0l1.4-3.3L5.8,14
	c-0.1-0.1-0.3-0.2-0.3-0.4c0-0.2,0.1-0.4,0.3-0.5l5.3-3.2l2.2-5.3c0-0.1,0-0.1,0-0.1C13.2,4.3,13.1,4.3,13.1,4.3L13.1,4.3z"/>
</svg>
